<?xml version="1.0" encoding="UTF-8"?>
<svg xmlns="http://www.w3.org/2000/svg" viewBox="0 0 24 24" fill="currentColor">
  <path d="M13.5,19.85l-1.52,4.15-1.48-4.15s.43-.58,1.1-.77v-.45h.8v.46c.34.09.73.32,1.1.76Z"/>
  <path d="M20.85.13c-.06.62-.13,1.62-.2,3-.07,1.38-.11,2.48-.11,3.31,0,.06-.06.09-.16.09s-.17-.03-.18-.09c-.31-1.61-.9-2.81-1.75-3.62-.85-.8-1.91-1.2-3.16-1.2-.61,0-1.01.14-1.2.39-.2.26-.29.75-.29,1.49v7.09h-3.51V3.44c0-.71-.09-1.19-.28-1.44-.18-.25-.57-.38-1.16-.38-2.48,0-4.26,1.62-5.34,4.85-.02.06-.08.09-.19.08-.1,0-.16-.05-.16-.11.08-.84.18-1.92.28-3.24s.16-2.31.16-2.98c0-.1.05-.16.17-.16.11,0,.17.06.17.16,0,.46.59.69,1.78.69,1.79.06,3.88.09,6.28.09,1.23,0,2.53-.02,3.91-.06l2.13-.03c.79,0,1.37-.06,1.73-.16s.6-.31.7-.62c.03-.08.09-.13.2-.13.12,0,.17.05.17.13Z"/>
  <rect x="11.77" y="8.22" width=".46" height="10.48"/>
</svg>
